<svg width="20" height="21" viewBox="0 0 20 21" fill="none" xmlns="http://www.w3.org/2000/svg">
<path d="M7.61236 17.811V15.2629C7.61236 14.6124 8.14352 14.0851 8.79874 14.0851H11.1939C11.5085 14.0851 11.8103 14.2092 12.0328 14.4301C12.2553 14.6509 12.3803 14.9505 12.3803 15.2629V17.811C12.3783 18.0814 12.4851 18.3414 12.677 18.5333C12.8689 18.7252 13.1301 18.8332 13.4025 18.8332H15.0366C15.7997 18.8351 16.5323 18.5355 17.0727 18.0005C17.613 17.4655 17.9167 16.739 17.9167 15.9814V8.72222C17.9167 8.11022 17.6434 7.52971 17.1706 7.13706L11.6117 2.72973C10.6448 1.95697 9.2593 1.98192 8.3212 2.78899L2.88922 7.13706C2.39399 7.51813 2.098 8.10037 2.08337 8.72222V15.974C2.08337 17.553 3.37286 18.8332 4.96352 18.8332H6.56028C7.12606 18.8332 7.58587 18.38 7.58997 17.8184L7.61236 17.811Z" fill="#535353"/>
</svg>
