<svg width="16" height="15" viewBox="0 0 16 15" fill="none" xmlns="http://www.w3.org/2000/svg">
<path d="M10.1666 6.66667C9.70829 6.66667 9.31579 6.50333 8.98913 6.17667C8.66246 5.85 8.49941 5.45778 8.49996 5V1.66667C8.49996 1.20833 8.66329 0.815835 8.98996 0.489168C9.31663 0.162501 9.70885 -0.000554141 10.1666 1.41483e-06H13.5C13.9583 1.41483e-06 14.3508 0.163335 14.6775 0.490001C15.0041 0.816668 15.1672 1.20889 15.1666 1.66667V5C15.1666 5.45833 15.0033 5.85083 14.6766 6.1775C14.35 6.50417 13.9577 6.66722 13.5 6.66667H10.1666ZM6.83329 5C6.83329 5.45833 6.66996 5.85083 6.34329 6.1775C6.01663 6.50417 5.62441 6.66722 5.16663 6.66667H1.83329C1.37496 6.66667 0.982461 6.50333 0.655794 6.17667C0.329127 5.85 0.166072 5.45778 0.166627 5V1.66667C0.166627 1.20833 0.329961 0.815835 0.656627 0.489168C0.983294 0.162501 1.37552 -0.000554141 1.83329 1.41483e-06H5.16663C5.62496 1.41483e-06 6.01746 0.163335 6.34413 0.490001C6.67079 0.816668 6.83385 1.20889 6.83329 1.66667V5ZM8.49996 10C8.49996 9.54167 8.66329 9.14917 8.98996 8.8225C9.31663 8.49583 9.70885 8.33278 10.1666 8.33333H13.5C13.9583 8.33333 14.3508 8.49667 14.6775 8.82333C15.0041 9.15 15.1672 9.54222 15.1666 10V13.3333C15.1666 13.7917 15.0033 14.1842 14.6766 14.5108C14.35 14.8375 13.9577 15.0006 13.5 15H10.1666C9.70829 15 9.31579 14.8367 8.98913 14.51C8.66246 14.1833 8.49941 13.7911 8.49996 13.3333V10ZM5.16663 8.33333C5.62496 8.33333 6.01746 8.49667 6.34413 8.82333C6.67079 9.15 6.83385 9.54222 6.83329 10V13.3333C6.83329 13.7917 6.66996 14.1842 6.34329 14.5108C6.01663 14.8375 5.62441 15.0006 5.16663 15H1.83329C1.37496 15 0.982461 14.8367 0.655794 14.51C0.329127 14.1833 0.166072 13.7911 0.166627 13.3333V10C0.166627 9.54167 0.329961 9.14917 0.656627 8.8225C0.983294 8.49583 1.37552 8.33278 1.83329 8.33333H5.16663Z" fill="#535353"/>
</svg>
